<svg id="Warstwa_1" data-name="Warstwa 1" xmlns="http://www.w3.org/2000/svg" viewBox="0 0 275.65 293.98"><defs><style>.cls-1{fill:#0f92fd;}.cls-2{fill:#1d9bfd;}.cls-3{fill:#0f80fe;}.cls-4{fill:#0f54b1;}.cls-5{fill:#0d6aeb;}.cls-6{fill:#2a75fd;}.cls-7{fill:#7e75fe;}.cls-8{fill:#5c72fe;}.cls-9{fill:#4472fe;}.cls-10{fill:#c7c7c7;}.cls-11{fill:#0f6ce3;}.cls-12{fill:#e3e1dd;}.cls-13{fill:#21a8fe;}.cls-14{fill:#d2d2d0;}.cls-15{fill:#f1eee8;}</style></defs><path class="cls-1" d="M486,498.07a1.87,1.87,0,0,1,.81.13c.84,1.79,2.37,2.07,4.12,1.86l-.09-.08c.66.71,1.32,1.42,2,2.14,3.39,8,2.95,10-5.09,13.92-7.66,3.76-15.76,6.63-23.55,10.17-6.06,2.75-13.2,3.25-18,8.76-1.53,1.75-2.24.25-2.28-1.34-.07-2.49,0-5-.06-7.48-.06-1.54.66-3.51-1.79-4q-.46-26.47-.95-52.95c3.84,3.11.81,7.36,1.81,10.94.28,5.28-.32,10.54.58,15.88.74,4.39,2.41,4.64,6,3.43,5.13-1.73,9.15-4.92,13.42-8.1,5.72-4.26,11.37-8.48,16.71-13.23a74.81,74.81,0,0,1,13.81-9.21c16.12-8.92,33.84-14,51-20.53,4.13-1.58,7.77-4.29,12.11-5.15,12.1-2.4,24.29-4.42,36.37-7,7.09-1.49,14.17-3.15,21.23-4.75,15.8-3.57,31.4-7.87,47-12.05,9.73-2.6,19.16-6.4,28.95-8.7,6.53-1.53,13.54-1.06,19.64-4.56A26.06,26.06,0,0,1,712,410c4.26,10.73,2.21,16.44-6.88,18.87q-48.95,13.06-97.93,26-36.25,9.56-72.59,18.84c-16.38,4.17-32.73,8.43-48.88,13.41-2,.61-4.74.59-5.28,3.56l-.23.19c-1.48-.94-2.55-.36-3.09,1.06s.38,2.08,1.73,2.22h0c.61,2.9,2.85,2.94,5.12,2.93l-.09-.07C484.24,498,485.08,498.11,486,498.07Z" transform="translate(-440.13 -393.87)"/><path class="cls-2" d="M442.89,480.12a10.35,10.35,0,0,0,8.37-2.21c5.95-5.06,13-8.5,19.35-13a173.66,173.66,0,0,1,27.58-16.38c12-5.46,23.47-12,35.88-16.56,8.8-3.22,17.5-6.72,26.21-10.17,1-.39,2.35-.3,3.1-1.85-1.27-1.36-2.66-2.14-4.66-1.29-2.75,1.17-4.41,0-5.46-2.56-1.25-3,1.17-3.69,3-4.71,10.8-6,22.59-8.94,34.6-11.18,1.84-.34,3.6-.51,4.87-2.05,5.67-.64,11.51,1.37,17-1.13h3.87c3.48,2.38,7.41.53,11.08,1.15.31.55.63.56,1,0a324.16,324.16,0,0,1,38.4,1.85c2.47.25,5.27,1.06,7.6-.9,11.07.58,22.29-1.47,33.19,2l1.83,1.88,0,3.18c-6.1,3.5-13.11,3-19.64,4.56-9.79,2.3-19.22,6.1-28.95,8.7-15.63,4.18-31.23,8.48-47,12.05-7.06,1.6-14.14,3.26-21.23,4.75-12.08,2.54-24.27,4.56-36.37,7-4.34.86-8,3.57-12.11,5.15-17.11,6.51-34.83,11.61-51,20.53a74.81,74.81,0,0,0-13.81,9.21c-5.34,4.75-11,9-16.71,13.23-4.27,3.18-8.29,6.37-13.42,8.1-3.58,1.21-5.25,1-6-3.43C442.57,490.66,443.17,485.4,442.89,480.12Z" transform="translate(-440.13 -393.87)"/><path class="cls-3" d="M442,522.13c2.45.51,1.73,2.48,1.79,4,.09,2.49,0,5,.06,7.48,0,1.59.75,3.09,2.28,1.34,4.81-5.51,11.95-6,18-8.76,7.79-3.54,15.89-6.41,23.55-10.17,8-3.95,8.48-5.9,5.09-13.92l3.11-.07-.09-.08c2.64,3,7,2.71,10,5.15-.06,1.65.27,2.87,2.33,3.06a8.17,8.17,0,0,1,5.09,2.86c3.65,3.87,8,6.75,12.44,9.71,8.24,5.54,14.66,12.7,17.44,22.64.53,1.88,1.12,4.94,3.79,4.53,4.16-.62,6.27,2.06,8.86,4.17-.9,3.54-1.59,7.78-5.46,8.83-7.73,2.09-14.82,5.91-22.51,8-15.19,4-30.45,7.85-45.73,11.58-11,2.69-22.11,5.1-33.17,7.64-1-3.29-2.11-6.56-2.94-9.89-.32-1.28-.59-1.78-1.84-1.13-2.4-17.93-1.43-36-2-54,.11-.09.32-.22.3-.28a3.47,3.47,0,0,0-.31-.68Z" transform="translate(-440.13 -393.87)"/><path class="cls-4" d="M715.37,481.92c-1.33-1.44,0-3.57-1.36-5.35-3.9,3.4-5.21,8.21-7.37,12.33-7.7,14.66-17.08,28.27-25.72,42.34-9.69,15.79-20.23,31-31.35,45.83a158.08,158.08,0,0,1-28.65,28.85c-1.45,1.14-3.07,2-3.32,4.07a8.64,8.64,0,0,0-.88,0c-2,1.29-4.71,1.63-6,4-4,2-7.89,4.4-12.07,6-3.5,1.29-7.24,3.71-11.16.78a64.65,64.65,0,0,0,10-11.62c8.55-12.62,17.17-25.18,25.72-37.79,6.74-9.93,13.41-19.91,20.11-29.87v-.05l1.53-2.24-.05,0,2.05-3-.05.07c2.28,0,1.43-2,2-3.11l.91-1.06.68-.91.36-.95c1.7-1.79,4.42-2.89,4.06-6.06l0,.05.8-1.07,1.19-1.9a4.82,4.82,0,0,0,2.22-3l-.08,0c1-.42.71-1.42,1-2.17l.93-.61.78-1.4c2-2.29,4-4.58,5.21-7.47a6.47,6.47,0,0,0,2.22-3.39l-.07.1,2.11-3-.09,0c1.57-1,2.93-2.08,2.89-4.16l-.06,0c1.41-2,4-3.17,4.1-6l-.09,0a5.46,5.46,0,0,0,2.1-3l-.1,0c1-.39.79-1.38,1-2.15l-.12.12,1.14-1.08,0,.17c1.27-.18,2.21-.62,1.71-2.19l1.29-2.95,1-1-.06.06c.77-.45,1.49-.92,1.22-2l-.18.05c.93.19,1-.49,1.11-1.1l-.06.1,2.4-3.11.5-.87c.89-.47.85-1.4,1.07-2.19l-.1.11,1.11-1.09-.07.1a2.2,2.2,0,0,0,1.13-2.08l-.14.1,1.17-1.1a1.13,1.13,0,0,0,.8-1.46l1.11-1.58,0,.18c2.23,0,1.47-2,2-3.13l-.06.05,1.55-2.06c.55-.73.26-2,1.43-2.32,1-.1.84-1.07,1.15-1.68l.88-.85a2.58,2.58,0,0,0,1.2-2.09l.11.12L712,440.29c1.34-.55,1.28-2.69,3.41-2.81Z" transform="translate(-440.13 -393.87)"/><path class="cls-5" d="M669.83,641.17h0l0,0Z" transform="translate(-440.13 -393.87)"/><path class="cls-5" d="M670.83,640.13l-.05,0h0Z" transform="translate(-440.13 -393.87)"/><path class="cls-5" d="M669.82,641.17l1-1c.37-1,1.17-1.1,2.08-1-.15-2.31,1.4-2.18,3-2h0c-.19-2,1.14-2.16,2.61-2.15,1-1.68,2.62-2.42,4.26-3.2.13-.83.31-1.61,1.47-1.2l.11-.15c-.21-.78,0-1.09.83-.79l.26-.14c-.45-1.4.53-1.36,1.42-1.41h0c.09-1.49.09-3.08,2.37-2.28a.53.53,0,0,0,.38-.49l-.15-.64.64.13a.5.5,0,0,0,.51-.49l-.15-.65.67.1a.48.48,0,0,0,.42-.41c-.39-.77-.15-1,.62-.68l.31-.25c-.68-1.53.37-2,1.49-2.37a30.91,30.91,0,0,1,2.06-2.76c12.06-13,18.76-28.88,19.35-46.17,1-29.72.14-59.51.07-89.27-1.33-1.44,0-3.57-1.36-5.35-3.9,3.4-5.21,8.21-7.37,12.33-7.7,14.66-17.08,28.27-25.72,42.34-9.69,15.78-20.23,31-31.35,45.83a158.08,158.08,0,0,1-28.65,28.85c-1.45,1.14-3.07,2-3.32,4.07a7.85,7.85,0,0,1,3.49,1.28A7.85,7.85,0,0,0,617.6,610a8.64,8.64,0,0,0-.88,0c.53,5.15-2.12,5.53-6,4-4,2-7.89,4.4-12.07,6-3.5,1.29-7.24,3.71-11.16.78-6.53,2.73-8.39,1.76-9.87-5.08-.56-2.53-1.22-5-1.84-7.57-2.27,2,.32,4-.13,6.07,1.37,24.54,2,49.1,2.22,73.67,6.69,0,12.57-2.72,18.28-5.8,11.18-6,22.42-11.95,33.4-18.33,7.38-4.29,15.41-7.38,22.32-12.48v0l0,0h0c.19-.59.52-.88,1.16-.52l.38-.13c-.46-1.41.5-1.38,1.41-1.41,1.26-2.58,3.44-3.22,6.09-2.89m-35.15-30.13c.27.33.55.67.84,1C626.3,616.8,626,616.46,625.75,616.13Z" transform="translate(-440.13 -393.87)"/><path class="cls-5" d="M672.86,639.22h0v0Z" transform="translate(-440.13 -393.87)"/><path class="cls-5" d="M654.83,649.15h0s0,0,0,0Z" transform="translate(-440.13 -393.87)"/><path class="cls-5" d="M660.91,646.27h0l0,.06Z" transform="translate(-440.13 -393.87)"/><path class="cls-6" d="M448.87,590.09c11.06-2.54,22.15-5,33.17-7.64,15.28-3.73,30.54-7.55,45.73-11.58,7.69-2,14.78-5.86,22.51-8,3.87-1,4.56-5.29,5.46-8.83l9.88-3.06c1,10.12,3.9,19.84,4.15,29.93-9.78,8.42-21.9,11.61-33.84,15.28-10.6,3.25-21.65,4.44-32.28,7.23-13.28,3.47-27,4.14-40.26,7.39-2.92.71-2.86,1.72-2.67,3.73a4,4,0,0,1-2-2.84c.19-1.94-.32-3.37-2.53-3.63-.13-.61-.27-1.22-.4-1.83C454.57,600.42,450.24,595.88,448.87,590.09Z" transform="translate(-440.13 -393.87)"/><path class="cls-7" d="M575.62,614.18c1.37,24.54,2,49.1,2.22,73.67a26.27,26.27,0,0,1-13.27-3.55c-8.36-4.75-16.46-9.95-24.79-14.75-6.82-3.94-13.89-7.45-20.74-11.36-4.53-2.57-8.86-5.51-13.27-8.28-.21-2.07-1.62-2-3.1-1.72h.05c-.3-1.07-1.12-1.15-2-1.05l0,.06c-.34-.37-.69-.73-1-1.09l-.25.2c.46-.67.81-1.82,1.39-1.94,6.89-1.53,13.76-3.43,20.75-4.2,9.21-1,18-4,27.12-5.19,8.65-1.12,15.55-7.33,24.31-8.08,2.13-.18,1.55-2.14,1.75-3.54C575.18,620.32,573.8,617.1,575.62,614.18Z" transform="translate(-440.13 -393.87)"/><path class="cls-8" d="M575.62,614.18c-1.82,2.92-.44,6.14-.87,9.19-.2,1.4.38,3.36-1.75,3.54-8.76.75-15.66,7-24.31,8.08-9.13,1.19-17.91,4.17-27.12,5.19-7,.77-13.86,2.67-20.75,4.2-.58.12-.93,1.27-1.39,1.94a110.11,110.11,0,0,1-23.7-15.53c0-1.36-.83-1.75-2-1.67l-2.14-1.92a17.07,17.07,0,0,1,4.17-2.4c11.92-4.49,24.74-3.44,37-6.43,13.8-3.38,27.45-7.24,41.19-10.79,6.84-1.77,12.64-5.58,18.87-8.55h1.83l1.14,9.09C573.48,610.08,576.07,612.16,575.62,614.18Z" transform="translate(-440.13 -393.87)"/><path class="cls-9" d="M572.78,599c-6.23,3-12,6.78-18.87,8.55-13.74,3.55-27.39,7.41-41.19,10.79-12.25,3-25.07,1.94-37,6.43a17.07,17.07,0,0,0-4.17,2.4l-4.82-5a1.78,1.78,0,0,0-1.8-2.2c-1.81-1.5-2.08-4.2-4.22-5.44-.19-2-.25-3,2.67-3.73,13.28-3.25,27-3.92,40.26-7.39,10.63-2.79,21.68-4,32.28-7.23,11.94-3.67,24.06-6.86,33.84-15.27,1.82,1.25.1,3.87,2,5.09C570.49,590.51,573.13,594.66,572.78,599Z" transform="translate(-440.13 -393.87)"/><path class="cls-10" d="M563.7,526.93c.19-1.9,1.85-2.21,3.15-2.81,20.52-9.59,39.67-21.66,59.25-32.94,20.6-11.86,41-24,61.56-36a21.64,21.64,0,0,1,3.72-1.35l.32.33a4.31,4.31,0,0,1-2,4.3c-8.83,5.34-15.49,13.34-23.94,19.22-17.76,12.35-34.07,26.69-52.65,38a133.06,133.06,0,0,0-12.49,8A116.52,116.52,0,0,1,574.55,539c-5.79,2.44-5.87,2.19-8.07-3.85-.17-.46-1-.67-1.57-1a6.53,6.53,0,0,1-1.35-4C563.22,529,565.41,528.07,563.7,526.93Z" transform="translate(-440.13 -393.87)"/><path class="cls-3" d="M709.68,406.19l0-3.18c5.86,6.53,5.45,14.63,5.56,22.57,0,2.91-2.7,2.6-4.41,3.07-27.42,7.57-54.83,15.19-82.32,22.5-46.84,12.45-94,23.61-140.64,36.9-2.54.73-5,1.73-7.49,2.6.55-3,3.29-2.94,5.29-3.55,16.15-5,32.5-9.24,48.88-13.41q36.34-9.26,72.59-18.84,49-12.9,97.93-26c9.09-2.43,11.14-8.14,6.88-18.87A26.06,26.06,0,0,0,709.68,406.19Z" transform="translate(-440.13 -393.87)"/><path class="cls-11" d="M563.7,526.93c1.71,1.14-.48,2.11-.14,3.19-.53.34-1.31.56-1.56,1-2.71,5.4-5.39,6.07-10.21,2.59-6.77-4.91-12.95-10.56-19.92-15.28-8.07-5.48-16.89-8.71-26.08-11.35-2.94-2.44-7.32-2.11-10-5.15,4.82,0,8.86,2.52,13.16,4.13C527.26,512.94,545.47,520,563.7,526.93Z" transform="translate(-440.13 -393.87)"/><path class="cls-1" d="M674.69,399.17c-2.33,2-5.13,1.15-7.6.9a324.16,324.16,0,0,0-38.4-1.85c-.32,0-.63,0-1,0-3.67-.62-7.6,1.23-11.08-1.15.78-1.29,2.07-.84,3.15-.82q27.45.53,54.9,1.13C674.7,398,674.7,398.58,674.69,399.17Z" transform="translate(-440.13 -393.87)"/><path class="cls-3" d="M701.42,395.11c-6.62-2-101.3-.87-108-1-38.6-.74-77.39.56-116,0-6.65-.16-14,0-20.53-.22-3.29-.1-6.1,1.31-8.64,3.38a21.81,21.81,0,0,0-8.12,17.51c.05,18.13.6,36.27.95,54.4,3.84,3.11.81,7.36,1.81,10.94a10.35,10.35,0,0,0,8.37-2.21c5.95-5.06,13-8.5,19.35-13a173.66,173.66,0,0,1,27.58-16.38c12-5.46,23.47-12,35.88-16.56,8.8-3.22,17.5-6.72,26.21-10.17,1-.39,2.35-.3,3.1-1.85-1.27-1.36-2.66-2.14-4.66-1.29-2.75,1.17-4.41,0-5.46-2.56-1.25-3,1.17-3.69,3-4.71,10.8-6,22.59-8.94,34.6-11.18,1.84-.34,9.55-1.13,11.55-1.13,9,0,113,38.4,113,27C715.42,418.11,717.44,399.23,701.42,395.11Z" transform="translate(-440.13 -393.87)"/><path class="cls-5" d="M448.87,590.09c1.37,5.79,5.7,10.33,6.88,16.2-5.5-5.59-7.41-13-9.88-20-.81-2.32-1.2-4.78-1.78-7.18,1.25-.65,1.52-.15,1.84,1.13C446.76,583.53,447.87,586.8,448.87,590.09Z" transform="translate(-440.13 -393.87)"/><path class="cls-12" d="M712,440.29,705,450.38c-.14-1.08-.27-2.16-.4-3.23,1.07-1.34,3.32-1.82,3-4.16C708.59,441.3,710.3,440.83,712,440.29Z" transform="translate(-440.13 -393.87)"/><path class="cls-5" d="M669.83,641.17" transform="translate(-440.13 -393.87)"/><path class="cls-5" d="M660.87,646.32" transform="translate(-440.13 -393.87)"/><path class="cls-5" d="M654.79,649.19c1.25-2.62,3.45-3.27,6.12-2.92A10.88,10.88,0,0,1,654.79,649.19Z" transform="translate(-440.13 -393.87)"/><path class="cls-10" d="M707.64,443c.32,2.34-1.93,2.82-3,4.16l-2,0-.25-.3C703.79,445.08,705.77,444.11,707.64,443Z" transform="translate(-440.13 -393.87)"/><path class="cls-3" d="M478.83,494.13c-1.35-.14-2.27-.77-1.73-2.22s1.61-2,3.09-1.06C479.52,491.85,478,492.49,478.83,494.13Z" transform="translate(-440.13 -393.87)"/><path class="cls-3" d="M483.94,497.05c-2.27,0-4.51,0-5.12-2.93C480.59,495,482.8,495.07,483.94,497.05Z" transform="translate(-440.13 -393.87)"/><path class="cls-5" d="M490.93,500.06c-1.75.21-3.28-.07-4.12-1.86A3.91,3.91,0,0,1,490.93,500.06Z" transform="translate(-440.13 -393.87)"/><path class="cls-5" d="M495.92,502.05l-3.11.07c-.65-.72-1.31-1.43-2-2.14A6.45,6.45,0,0,1,495.92,502.05Z" transform="translate(-440.13 -393.87)"/><path class="cls-5" d="M456.15,608.12c2.21.26,2.72,1.69,2.53,3.63A6.42,6.42,0,0,1,456.15,608.12Z" transform="translate(-440.13 -393.87)"/><path class="cls-5" d="M672.86,639.24c-.16-2.33,1.39-2.2,3-2.06A5,5,0,0,1,672.86,639.24Z" transform="translate(-440.13 -393.87)"/><path class="cls-8" d="M502.67,648.19c1.48-.24,2.89-.35,3.1,1.72A3,3,0,0,1,502.67,648.19Z" transform="translate(-440.13 -393.87)"/><path class="cls-10" d="M694.39,451.82c.49-1.49,1.74-1.75,3.05-1.9l.24.25a3.07,3.07,0,0,1-3,2Z" transform="translate(-440.13 -393.87)"/><path class="cls-5" d="M675.82,637.19c-.19-2,1.14-2.16,2.61-2.15C678.06,636.36,676.89,636.71,675.82,637.19Z" transform="translate(-440.13 -393.87)"/><path class="cls-5" d="M686.78,628.15c.09-1.49.09-3.08,2.37-2.28Z" transform="translate(-440.13 -393.87)"/><path class="cls-1" d="M702.8,398.15c-1,0-2.12.24-3-.52C700.88,397.2,702,397,702.8,398.15Z" transform="translate(-440.13 -393.87)"/><path class="cls-6" d="M473.7,629.12c1.2-.08,2,.31,2,1.67Z" transform="translate(-440.13 -393.87)"/><path class="cls-5" d="M692.4,622.49c-.68-1.53.37-2,1.49-2.37C694.11,621.36,693.18,621.88,692.4,622.49Z" transform="translate(-440.13 -393.87)"/><path class="cls-6" d="M464.94,620a1.78,1.78,0,0,1,1.8,2.2Z" transform="translate(-440.13 -393.87)"/><path class="cls-10" d="M700.46,447.92l2-1,.24.29a2,2,0,0,1-2,1Z" transform="translate(-440.13 -393.87)"/><path class="cls-5" d="M670.77,640.19c.38-1,1.18-1.11,2.09-1C672.45,640.15,671.54,640,670.77,640.19Z" transform="translate(-440.13 -393.87)"/><path class="cls-10" d="M692.41,452.91l2-1.09.3.36a2.08,2.08,0,0,1-2,1Z" transform="translate(-440.13 -393.87)"/><path class="cls-8" d="M500.69,647.15c.91-.1,1.73,0,2,1.05A1.76,1.76,0,0,1,500.69,647.15Z" transform="translate(-440.13 -393.87)"/><path class="cls-5" d="M653.4,650.56c-.47-1.42.52-1.38,1.43-1.41Z" transform="translate(-440.13 -393.87)"/><path class="cls-3" d="M486,498.07c-.92,0-1.76-.09-2.15-1.09C484.69,497.11,485.68,496.93,486,498.07Z" transform="translate(-440.13 -393.87)"/><path class="cls-10" d="M698.53,449l1.93-1.12.21.25a2,2,0,0,1-2,1Z" transform="translate(-440.13 -393.87)"/><path class="cls-5" d="M685.36,629.56c-.45-1.4.53-1.36,1.42-1.41Z" transform="translate(-440.13 -393.87)"/><path class="cls-5" d="M682.69,631.84c.13-.83.31-1.61,1.47-1.2Z" transform="translate(-440.13 -393.87)"/><path class="cls-10" d="M697.44,449.92l1.09-.88.14.12-1,1Z" transform="translate(-440.13 -393.87)"/><path class="cls-10" d="M691.38,453.85l1-.94.28.26-1,1Z" transform="translate(-440.13 -393.87)"/><path class="cls-5" d="M684.27,630.49c-.21-.78,0-1.09.83-.79Z" transform="translate(-440.13 -393.87)"/><path class="cls-1" d="M442,524.13a3.47,3.47,0,0,1,.31.68c0,.06-.19.19-.3.28A1,1,0,0,1,442,524.13Z" transform="translate(-440.13 -393.87)"/><path class="cls-5" d="M691.47,623.42c-.39-.77-.15-1,.62-.68A1,1,0,0,1,691.47,623.42Z" transform="translate(-440.13 -393.87)"/><path class="cls-5" d="M690.53,624.38l-.15-.65.67.1A1,1,0,0,1,690.53,624.38Z" transform="translate(-440.13 -393.87)"/><path class="cls-5" d="M669.79,641.2c.34-.36.69-.71,1-1.07C670.48,640.49,670.13,640.84,669.79,641.2Z" transform="translate(-440.13 -393.87)"/><path class="cls-8" d="M499.68,646.12c.34.36.69.72,1,1.09C500.09,647.11,499.44,647,499.68,646.12Z" transform="translate(-440.13 -393.87)"/><path class="cls-5" d="M689.53,625.38l-.15-.64.64.13A1,1,0,0,1,689.53,625.38Z" transform="translate(-440.13 -393.87)"/><path class="cls-5" d="M651.84,651.26c.19-.62.52-.94,1.18-.57Z" transform="translate(-440.13 -393.87)"/><path class="cls-13" d="M627.74,398.22c.32,0,.63,0,1,0C628.37,398.78,628.05,398.77,627.74,398.22Z" transform="translate(-440.13 -393.87)"/><path class="cls-5" d="M505.79,507.12c9.19,2.64,18,5.87,26.08,11.35,7,4.72,13.15,10.37,19.92,15.28,4.82,3.48,7.5,2.81,10.21-2.59.25-.48,1-.7,1.56-1a6.53,6.53,0,0,0,1.35,4c-.07,6.86,1.94,13.35,3.66,19.88-1.38,1.06-.56,2.25-.35,3.53,1.12,6.81,2.66,13.58,2.65,20.54a9.32,9.32,0,0,1,1.11,5.45l-.24,2.53c-1.87-1.22-.15-3.84-2-5.09-.25-10.1-3.13-19.82-4.15-29.94l-9.88,3.06c-2.59-2.11-4.7-4.79-8.86-4.17-2.67.41-3.26-2.65-3.79-4.53-2.78-9.94-9.2-17.1-17.44-22.64-4.41-3-8.79-5.84-12.44-9.71a8.17,8.17,0,0,0-5.09-2.86C506.06,510,505.73,508.77,505.79,507.12Z" transform="translate(-440.13 -393.87)"/><path class="cls-14" d="M568.57,554c-1.72-6.53-3.73-13-3.66-19.88.54.32,1.4.53,1.57,1,2.2,6,2.28,6.29,8.07,3.85a116.52,116.52,0,0,0,26.09-15.26,133.06,133.06,0,0,1,12.49-8c18.58-11.29,34.89-25.63,52.65-38,8.45-5.88,15.11-13.88,23.94-19.22a4.31,4.31,0,0,0,2-4.3l1-1a2.08,2.08,0,0,0,2-1,3.07,3.07,0,0,0,3-2l1-1a2,2,0,0,0,2-1,2,2,0,0,0,2-1l2,0c.13,1.07.26,2.15.4,3.23l-.11-.12c-1.13.28-1.22,1.15-1.2,2.09l-.88.85a1.58,1.58,0,0,0-1.15,1.68c-1.17.35-.88,1.59-1.43,2.32a1.78,1.78,0,0,0-1.55,2.06l.06-.05c-2.23,0-2.13,1.57-2,3.13l0-.18-1.11,1.58a1.13,1.13,0,0,1-.8,1.46l-1.17,1.1.14-.09c-1.06.31-1.17,1.15-1.13,2.07l.07-.09-1.11,1.08.1-.11c-1,.4-1.09,1.27-1.07,2.19l-.5.87c-2.3-.12-2.73,1.2-2.4,3.11l.06-.1-1.11,1.1.18-.05c-1.15.2-1.28,1-1.22,2l.06-.06-1.42.22.44.79-1.29,2.95c-1.46,0-1.92.85-1.71,2.19l0-.17-1.14,1.08.12-.12c-1,.39-1.18,1.2-1,2.15l.1,0c-2.37-.15-2.28,1.41-2.1,3l.09,0a1.87,1.87,0,0,0-2.22.84c-7.28.6-11.39,6.61-16.51,10.45C645.29,512,632.22,523.57,617,532c-13.73,7.66-25.69,18.18-40.38,24.25C572.82,557.86,569.85,560,568.57,554Z" transform="translate(-440.13 -393.87)"/><path class="cls-15" d="M572,583.53a9.32,9.32,0,0,0-1.11-5.45c1.8-.11,3.75.4,5.32-.78,5.07-3.78,11-5.92,16.46-9a348.16,348.16,0,0,0,38.69-24.65c3.73-2.78,7.55-3.84,12-2.21-6.7,10-13.37,19.94-20.11,29.87C614.66,584,606,596.52,597.49,609.14a64.65,64.65,0,0,1-10,11.62c-6.53,2.73-8.39,1.76-9.87-5.08-.56-2.53-1.22-5-1.84-7.57L574.61,599C573,594,574.18,588.47,572,583.53Z" transform="translate(-440.13 -393.87)"/><path class="cls-12" d="M643.32,541.48c-4.43-1.63-8.25-.57-12,2.21a348.16,348.16,0,0,1-38.69,24.65c-5.44,3-11.39,5.18-16.46,9-1.57,1.18-3.52.67-5.32.78,0-7-1.53-13.73-2.65-20.54-.21-1.28-1-2.47.35-3.53,1.28,6,4.25,3.85,8.09,2.27,14.69-6.07,26.65-16.59,40.38-24.25,15.18-8.46,28.25-20.07,42.12-30.47,5.12-3.84,9.23-9.85,16.51-10.45-.87,1.64-2.5,3-1.88,5.17l.06,0c-2.64.22-3,2-2.89,4.16l.09,0c-2.62-.37-2.38,1.29-2.11,3l.07-.1c-2,.33-2.34,1.7-2.22,3.39-1.17,2.89-3.19,5.18-5.21,7.47l-.78,1.4-.93.61c-1,.4-1.16,1.22-1,2.17l.07,0c-2.35-.23-2.26,1.37-2.21,3l-1.19,1.9-.8,1.07,0-.05c-3.07.87-4.09,3.11-4.06,6.06l-.36.95-.68.91-.91,1.06c-2.22,0-2.11,1.56-2,3.11l.05-.07c-2.27-.05-2.18,1.49-2.05,3l.05,0c-1.54,0-2.39.56-1.53,2.24Z" transform="translate(-440.13 -393.87)"/><path class="cls-11" d="M616.72,610c.53,5.15-2.12,5.53-6,4C612,611.66,614.68,611.32,616.72,610Z" transform="translate(-440.13 -393.87)"/><path class="cls-15" d="M650.74,530.23c0-3,1-5.19,4.06-6.06C655.16,527.34,652.44,528.44,650.74,530.23Z" transform="translate(-440.13 -393.87)"/><path class="cls-15" d="M673.79,496.28c-.62-2.17,1-3.53,1.88-5.17a1.87,1.87,0,0,1,2.22-.84C677.75,493.11,675.2,494.31,673.79,496.28Z" transform="translate(-440.13 -393.87)"/><path class="cls-15" d="M671,500.39c-.12-2.13.25-3.94,2.89-4.16C673.89,498.31,672.53,499.42,671,500.39Z" transform="translate(-440.13 -393.87)"/><path class="cls-15" d="M696.77,462.34c-.12-1.56-.22-3.09,2-3.13C698.24,460.33,699,462.29,696.77,462.34Z" transform="translate(-440.13 -393.87)"/><path class="cls-15" d="M646.8,536.26c-.12-1.55-.23-3.08,2-3.11C648.23,534.25,649.08,536.26,646.8,536.26Z" transform="translate(-440.13 -393.87)"/><path class="cls-15" d="M687.83,475.33c-.33-1.91.1-3.23,2.4-3.11Z" transform="translate(-440.13 -393.87)"/><path class="cls-15" d="M677.8,490.3c-.18-1.62-.27-3.18,2.1-3A5.46,5.46,0,0,1,677.8,490.3Z" transform="translate(-440.13 -393.87)"/><path class="cls-15" d="M668.94,503.39c-.27-1.68-.51-3.34,2.11-3Z" transform="translate(-440.13 -393.87)"/><path class="cls-15" d="M656.74,521.25c0-1.58-.14-3.18,2.21-3A4.77,4.77,0,0,1,656.74,521.25Z" transform="translate(-440.13 -393.87)"/><path class="cls-15" d="M644.8,539.24c-.13-1.56-.22-3.1,2.05-3Z" transform="translate(-440.13 -393.87)"/><path class="cls-15" d="M681.82,484.36c-.21-1.34.25-2.15,1.71-2.19C684,483.74,683.09,484.18,681.82,484.36Z" transform="translate(-440.13 -393.87)"/><path class="cls-15" d="M666.79,506.68c-.12-1.69.25-3.06,2.22-3.39A6.47,6.47,0,0,1,666.79,506.68Z" transform="translate(-440.13 -393.87)"/><path class="cls-15" d="M643.32,541.43c-.86-1.68,0-2.19,1.53-2.24Z" transform="translate(-440.13 -393.87)"/><path class="cls-15" d="M692.74,468.28c0-.92.07-1.76,1.13-2.07A2.19,2.19,0,0,1,692.74,468.28Z" transform="translate(-440.13 -393.87)"/><path class="cls-12" d="M703.73,452.35c0-.94.07-1.81,1.2-2.09A2.58,2.58,0,0,1,703.73,452.35Z" transform="translate(-440.13 -393.87)"/><path class="cls-12" d="M701.7,454.88a1.58,1.58,0,0,1,1.15-1.68C702.54,453.81,702.74,454.78,701.7,454.88Z" transform="translate(-440.13 -393.87)"/><path class="cls-15" d="M698.72,459.26a1.78,1.78,0,0,1,1.55-2.06C699.76,457.89,699.24,458.58,698.72,459.26Z" transform="translate(-440.13 -393.87)"/><path class="cls-15" d="M658.88,518.33c-.17-1,0-1.77,1-2.17C659.59,516.91,659.87,517.91,658.88,518.33Z" transform="translate(-440.13 -393.87)"/><path class="cls-15" d="M679.8,487.3c-.15-.95,0-1.76,1-2.15C680.59,485.92,680.82,486.91,679.8,487.3Z" transform="translate(-440.13 -393.87)"/><path class="cls-15" d="M684.82,479.22l-.44-.79,1.42-.22C685.47,478.55,685.15,478.89,684.82,479.22Z" transform="translate(-440.13 -393.87)"/><path class="cls-15" d="M685.74,478.27c-.06-.95.07-1.79,1.22-2C687.23,477.35,686.51,477.82,685.74,478.27Z" transform="translate(-440.13 -393.87)"/><path class="cls-15" d="M690.73,471.35c0-.92,0-1.79,1.07-2.19C691.58,470,691.62,470.88,690.73,471.35Z" transform="translate(-440.13 -393.87)"/><path class="cls-15" d="M649.7,532.09l.68-.91Z" transform="translate(-440.13 -393.87)"/><path class="cls-15" d="M686.78,476.33l1.11-1.1C687.76,475.84,687.71,476.52,686.78,476.33Z" transform="translate(-440.13 -393.87)"/><path class="cls-15" d="M654.75,524.22l.8-1.07Z" transform="translate(-440.13 -393.87)"/><path class="cls-15" d="M693.73,466.3l1.17-1.1Z" transform="translate(-440.13 -393.87)"/><path class="cls-15" d="M691.7,469.27l1.11-1.08Z" transform="translate(-440.13 -393.87)"/><path class="cls-15" d="M660.8,515.55l.78-1.4Z" transform="translate(-440.13 -393.87)"/><path class="cls-15" d="M680.71,485.27l1.14-1.08Z" transform="translate(-440.13 -393.87)"/><path class="cls-15" d="M695.7,463.74l1.11-1.58Z" transform="translate(-440.13 -393.87)"/><path class="cls-6" d="M572,583.53c2.2,4.94,1.06,10.44,2.63,15.49h-1.83c.35-4.37-2.29-8.52-1-13Z" transform="translate(-440.13 -393.87)"/></svg>